<mxfile host="app.diagrams.net" agent="Mozilla/5.0 (Windows NT 10.0; Win64; x64) AppleWebKit/537.36 (KHTML, like Gecko) Chrome/136.0.0.0 Safari/537.36 Edg/136.0.0.0" version="26.3.0">
  <diagram name="Page-1" id="kgnmkztadasvNqB1lCAR">
    <mxGraphModel dx="828" dy="503" grid="1" gridSize="10" guides="1" tooltips="1" connect="1" arrows="1" fold="1" page="1" pageScale="1" pageWidth="850" pageHeight="1100" math="0" shadow="0">
      <root>
        <mxCell id="0" />
        <mxCell id="1" parent="0" />
        <mxCell id="qm3uMAphaem3InAArTcg-3" value="" style="group" vertex="1" connectable="0" parent="1">
          <mxGeometry y="300" width="80" height="80" as="geometry" />
        </mxCell>
        <mxCell id="qm3uMAphaem3InAArTcg-1" value="" style="ellipse;whiteSpace=wrap;html=1;aspect=fixed;fillColor=#d5e8d4;strokeColor=#82b366;" vertex="1" parent="qm3uMAphaem3InAArTcg-3">
          <mxGeometry width="80" height="80" as="geometry" />
        </mxCell>
        <mxCell id="qm3uMAphaem3InAArTcg-2" value="" style="ellipse;whiteSpace=wrap;html=1;aspect=fixed;fillColor=#d5e8d4;strokeColor=#82b366;" vertex="1" parent="qm3uMAphaem3InAArTcg-3">
          <mxGeometry x="10" y="10" width="60" height="60" as="geometry" />
        </mxCell>
        <mxCell id="qm3uMAphaem3InAArTcg-10" style="edgeStyle=orthogonalEdgeStyle;rounded=0;orthogonalLoop=1;jettySize=auto;html=1;exitX=1;exitY=0.5;exitDx=0;exitDy=0;fillColor=#dae8fc;strokeColor=#6c8ebf;" edge="1" parent="1" source="qm3uMAphaem3InAArTcg-4" target="qm3uMAphaem3InAArTcg-5">
          <mxGeometry relative="1" as="geometry" />
        </mxCell>
        <mxCell id="qm3uMAphaem3InAArTcg-4" value="Attente" style="rounded=1;whiteSpace=wrap;html=1;fillColor=#dae8fc;strokeColor=#6c8ebf;" vertex="1" parent="1">
          <mxGeometry x="240" y="310" width="120" height="60" as="geometry" />
        </mxCell>
        <mxCell id="qm3uMAphaem3InAArTcg-11" style="edgeStyle=orthogonalEdgeStyle;rounded=0;orthogonalLoop=1;jettySize=auto;html=1;exitX=1;exitY=0.5;exitDx=0;exitDy=0;fillColor=#dae8fc;strokeColor=#6c8ebf;" edge="1" parent="1" source="qm3uMAphaem3InAArTcg-5" target="qm3uMAphaem3InAArTcg-6">
          <mxGeometry relative="1" as="geometry" />
        </mxCell>
        <mxCell id="qm3uMAphaem3InAArTcg-5" value="Embarquement" style="rounded=1;whiteSpace=wrap;html=1;fillColor=#dae8fc;strokeColor=#6c8ebf;" vertex="1" parent="1">
          <mxGeometry x="490" y="310" width="120" height="60" as="geometry" />
        </mxCell>
        <mxCell id="qm3uMAphaem3InAArTcg-12" style="edgeStyle=orthogonalEdgeStyle;rounded=0;orthogonalLoop=1;jettySize=auto;html=1;exitX=1;exitY=0.5;exitDx=0;exitDy=0;entryX=0;entryY=0.5;entryDx=0;entryDy=0;fillColor=#dae8fc;strokeColor=#6c8ebf;" edge="1" parent="1" source="qm3uMAphaem3InAArTcg-6" target="qm3uMAphaem3InAArTcg-7">
          <mxGeometry relative="1" as="geometry" />
        </mxCell>
        <mxCell id="qm3uMAphaem3InAArTcg-17" value="L&#39;avion est arrivé à destination" style="edgeLabel;html=1;align=center;verticalAlign=middle;resizable=0;points=[];" vertex="1" connectable="0" parent="qm3uMAphaem3InAArTcg-12">
          <mxGeometry x="-0.0436" y="-3" relative="1" as="geometry">
            <mxPoint y="37" as="offset" />
          </mxGeometry>
        </mxCell>
        <mxCell id="qm3uMAphaem3InAArTcg-6" value="Vol(cargo ou passager)" style="rounded=1;whiteSpace=wrap;html=1;fillColor=#dae8fc;strokeColor=#6c8ebf;" vertex="1" parent="1">
          <mxGeometry x="720" y="310" width="140" height="60" as="geometry" />
        </mxCell>
        <mxCell id="qm3uMAphaem3InAArTcg-13" style="edgeStyle=orthogonalEdgeStyle;rounded=0;orthogonalLoop=1;jettySize=auto;html=1;exitX=1;exitY=0.5;exitDx=0;exitDy=0;entryX=0;entryY=0.5;entryDx=0;entryDy=0;fillColor=#dae8fc;strokeColor=#6c8ebf;" edge="1" parent="1" source="qm3uMAphaem3InAArTcg-7" target="qm3uMAphaem3InAArTcg-8">
          <mxGeometry relative="1" as="geometry" />
        </mxCell>
        <mxCell id="qm3uMAphaem3InAArTcg-16" value="Tout les passagers ou la cargaison a été débarquée" style="edgeLabel;html=1;align=center;verticalAlign=middle;resizable=0;points=[];" vertex="1" connectable="0" parent="qm3uMAphaem3InAArTcg-13">
          <mxGeometry x="-0.0822" y="1" relative="1" as="geometry">
            <mxPoint y="41" as="offset" />
          </mxGeometry>
        </mxCell>
        <mxCell id="qm3uMAphaem3InAArTcg-7" value="Débarquement" style="rounded=1;whiteSpace=wrap;html=1;fillColor=#dae8fc;strokeColor=#6c8ebf;" vertex="1" parent="1">
          <mxGeometry x="930" y="310" width="120" height="60" as="geometry" />
        </mxCell>
        <mxCell id="qm3uMAphaem3InAArTcg-14" style="edgeStyle=orthogonalEdgeStyle;rounded=0;orthogonalLoop=1;jettySize=auto;html=1;exitX=0.5;exitY=0;exitDx=0;exitDy=0;entryX=0.5;entryY=0;entryDx=0;entryDy=0;fillColor=#dae8fc;strokeColor=#6c8ebf;" edge="1" parent="1" source="qm3uMAphaem3InAArTcg-8" target="qm3uMAphaem3InAArTcg-4">
          <mxGeometry relative="1" as="geometry" />
        </mxCell>
        <mxCell id="qm3uMAphaem3InAArTcg-8" value="Maintenance" style="rounded=1;whiteSpace=wrap;html=1;fillColor=#dae8fc;strokeColor=#6c8ebf;" vertex="1" parent="1">
          <mxGeometry x="1190" y="310" width="120" height="60" as="geometry" />
        </mxCell>
        <mxCell id="qm3uMAphaem3InAArTcg-9" style="edgeStyle=orthogonalEdgeStyle;rounded=0;orthogonalLoop=1;jettySize=auto;html=1;exitX=1;exitY=0.5;exitDx=0;exitDy=0;fillColor=#dae8fc;strokeColor=#6c8ebf;" edge="1" parent="1" source="qm3uMAphaem3InAArTcg-1" target="qm3uMAphaem3InAArTcg-4">
          <mxGeometry relative="1" as="geometry" />
        </mxCell>
        <mxCell id="qm3uMAphaem3InAArTcg-15" value="Instanciation de l&#39;avion" style="edgeLabel;html=1;align=center;verticalAlign=middle;resizable=0;points=[];" vertex="1" connectable="0" parent="qm3uMAphaem3InAArTcg-9">
          <mxGeometry x="0.0167" relative="1" as="geometry">
            <mxPoint as="offset" />
          </mxGeometry>
        </mxCell>
        <mxCell id="qm3uMAphaem3InAArTcg-18" value="" style="endArrow=classic;html=1;rounded=0;fillColor=#d5e8d4;strokeColor=#82b366;" edge="1" parent="1">
          <mxGeometry width="50" height="50" relative="1" as="geometry">
            <mxPoint x="1120" y="380" as="sourcePoint" />
            <mxPoint x="1120" y="340" as="targetPoint" />
          </mxGeometry>
        </mxCell>
        <mxCell id="qm3uMAphaem3InAArTcg-19" value="" style="endArrow=classic;html=1;rounded=0;fillColor=#d5e8d4;strokeColor=#82b366;" edge="1" parent="1">
          <mxGeometry width="50" height="50" relative="1" as="geometry">
            <mxPoint x="890" y="380" as="sourcePoint" />
            <mxPoint x="890" y="340" as="targetPoint" />
          </mxGeometry>
        </mxCell>
        <mxCell id="qm3uMAphaem3InAArTcg-20" value="" style="endArrow=classic;html=1;rounded=0;fillColor=#d5e8d4;strokeColor=#82b366;" edge="1" parent="1">
          <mxGeometry width="50" height="50" relative="1" as="geometry">
            <mxPoint x="670" y="380" as="sourcePoint" />
            <mxPoint x="670" y="340" as="targetPoint" />
          </mxGeometry>
        </mxCell>
        <mxCell id="qm3uMAphaem3InAArTcg-21" value="L&#39;avion est complètement chargé" style="edgeLabel;html=1;align=center;verticalAlign=middle;resizable=0;points=[];" vertex="1" connectable="0" parent="1">
          <mxGeometry x="680.0033333333332" y="380" as="geometry" />
        </mxCell>
      </root>
    </mxGraphModel>
  </diagram>
</mxfile>
